<svg width="40" height="40" viewBox="0 0 40 40" fill="none" xmlns="http://www.w3.org/2000/svg">
<g clip-path="url(#clip0_6127_60)">
<path d="M35.599 4.21344H31.846V2.5375C31.846 1.68414 30.9476 1.01562 29.8015 1.01562C28.6537 1.01562 27.7546 1.68414 27.7546 2.5375V4.21344H22.0469V2.5375C22.0469 1.68414 21.1477 1.01562 20.0001 1.01562C18.8524 1.01562 17.9532 1.68414 17.9532 2.5375V4.21344H12.2476V2.5375C12.2476 1.68414 11.3486 1.01562 10.2007 1.01562C9.05279 1.01562 8.1538 1.68414 8.1538 2.5375V4.21344H4.40326C3.74497 4.21416 3.11385 4.47598 2.64836 4.94145C2.18287 5.40693 1.92103 6.03804 1.92029 6.69633V36.5014C1.92107 37.1597 2.18292 37.7908 2.6484 38.2563C3.11388 38.7217 3.74497 38.9836 4.40326 38.9844H35.599C36.2571 38.9834 36.8878 38.7215 37.3529 38.2559C37.818 37.7904 38.0794 37.1594 38.0798 36.5014V6.69633C38.0794 6.03831 37.818 5.40732 37.3529 4.94184C36.8878 4.47635 36.2571 4.21439 35.599 4.21344ZM29.0047 2.54687C29.043 2.46484 29.3305 2.26562 29.8016 2.26562C30.2713 2.26562 30.558 2.46516 30.5961 2.54687V4.21344H29.0047V2.54687ZM19.2032 2.54758C19.2422 2.46531 19.5301 2.26562 20.0001 2.26562C20.4701 2.26562 20.7579 2.46531 20.7969 2.54758V4.21344H19.2032V2.54758ZM9.40396 2.54758C9.44302 2.46531 9.73076 2.26562 10.2008 2.26562C10.6709 2.26562 10.9586 2.46531 10.9977 2.54758V4.21344H9.40396V2.54758Z" fill="#EAE8E8"/>
<path d="M18.6031 16.0283V18.834C18.6031 18.9998 18.5372 19.1588 18.42 19.276C18.3028 19.3932 18.1439 19.459 17.9781 19.459H14.7984C14.6326 19.459 14.4737 19.3932 14.3565 19.276C14.2393 19.1588 14.1734 18.9998 14.1734 18.834V16.0283C14.1734 15.8625 14.2393 15.7035 14.3565 15.5863C14.4737 15.4691 14.6326 15.4033 14.7984 15.4033H17.9781C18.1439 15.4033 18.3028 15.4691 18.42 15.5863C18.5372 15.7035 18.6031 15.8625 18.6031 16.0283ZM25.2018 15.4033H22.0222C21.8564 15.4033 21.6974 15.4691 21.5802 15.5863C21.463 15.7035 21.3972 15.8625 21.3972 16.0283V18.834C21.3972 18.9998 21.463 19.1588 21.5802 19.276C21.6974 19.3932 21.8564 19.459 22.0222 19.459H25.2018C25.3676 19.459 25.5266 19.3932 25.6438 19.276C25.761 19.1588 25.8268 18.9998 25.8268 18.834V16.0283C25.8268 15.8625 25.761 15.7035 25.6438 15.5863C25.5266 15.4691 25.3676 15.4033 25.2018 15.4033ZM10.7565 22.2682H7.57434C7.40858 22.2682 7.24961 22.334 7.1324 22.4512C7.01519 22.5685 6.94934 22.7274 6.94934 22.8932V25.699C6.94934 25.8647 7.01519 26.0237 7.1324 26.1409C7.24961 26.2581 7.40858 26.324 7.57434 26.324H10.7566C10.9224 26.324 11.0813 26.2581 11.1985 26.1409C11.3158 26.0237 11.3816 25.8647 11.3816 25.699V22.8932C11.3816 22.7274 11.3158 22.5685 11.1985 22.4512C11.0813 22.334 10.9223 22.2682 10.7565 22.2682ZM17.978 22.2682H14.7983C14.6326 22.2682 14.4736 22.334 14.3564 22.4512C14.2392 22.5685 14.1733 22.7274 14.1733 22.8932V25.699C14.1733 25.8647 14.2392 26.0237 14.3564 26.1409C14.4736 26.2581 14.6326 26.324 14.7983 26.324H17.978C18.1438 26.324 18.3027 26.2581 18.42 26.1409C18.5372 26.0237 18.603 25.8647 18.603 25.699V22.8932C18.603 22.7274 18.5372 22.5685 18.42 22.4513C18.3028 22.3341 18.1438 22.2682 17.9781 22.2682H17.978ZM25.2018 22.2682H22.0221C21.8563 22.2682 21.6973 22.334 21.5801 22.4512C21.4629 22.5685 21.3971 22.7274 21.3971 22.8932V25.699C21.3971 25.8647 21.4629 26.0237 21.5801 26.1409C21.6973 26.2581 21.8563 26.324 22.0221 26.324H25.2018C25.3675 26.324 25.5265 26.2581 25.6437 26.1409C25.7609 26.0237 25.8268 25.8647 25.8268 25.699V22.8932C25.8268 22.7274 25.7609 22.5685 25.6437 22.4513C25.5265 22.3341 25.3676 22.2682 25.2018 22.2682H25.2018ZM10.7564 29.1354H7.57434C7.40858 29.1354 7.24961 29.2012 7.1324 29.3184C7.01519 29.4356 6.94934 29.5946 6.94934 29.7604V32.5639C6.94934 32.7296 7.01519 32.8886 7.1324 33.0058C7.24961 33.123 7.40858 33.1889 7.57434 33.1889H10.7566C10.9224 33.1889 11.0813 33.123 11.1985 33.0058C11.3158 32.8886 11.3816 32.7296 11.3816 32.5639V29.7604C11.3816 29.5947 11.3158 29.4357 11.1985 29.3185C11.0813 29.2013 10.9224 29.1354 10.7566 29.1354L10.7564 29.1354ZM17.9779 29.1354H14.7982C14.6325 29.1354 14.4735 29.2012 14.3563 29.3184C14.2391 29.4356 14.1732 29.5946 14.1732 29.7604V32.5639C14.1732 32.7296 14.2391 32.8886 14.3563 33.0058C14.4735 33.123 14.6325 33.1889 14.7982 33.1889H17.9779C18.1437 33.1889 18.3027 33.123 18.4199 33.0058C18.5371 32.8886 18.6029 32.7296 18.6029 32.5639V29.7604C18.6029 29.5947 18.5371 29.4358 18.4199 29.3186C18.3028 29.2014 18.1438 29.1355 17.9781 29.1354L17.9779 29.1354ZM10.7566 15.4033H7.57434C7.40858 15.4033 7.24961 15.4691 7.1324 15.5863C7.01519 15.7035 6.94934 15.8625 6.94934 16.0283V18.834C6.94934 18.9998 7.01519 19.1588 7.1324 19.276C7.24961 19.3932 7.40858 19.459 7.57434 19.459H10.7566C10.9224 19.459 11.0813 19.3932 11.1985 19.276C11.3158 19.1588 11.3816 18.9998 11.3816 18.834V16.0283C11.3816 15.8625 11.3158 15.7035 11.1985 15.5863C11.0813 15.4691 10.9224 15.4033 10.7566 15.4033ZM32.4256 22.2682H29.2459C29.0801 22.2682 28.9212 22.334 28.804 22.4512C28.6868 22.5685 28.6209 22.7274 28.6209 22.8932V25.699C28.6209 25.8647 28.6868 26.0237 28.804 26.1409C28.9212 26.2581 29.0801 26.324 29.2459 26.324H32.4256C32.5914 26.324 32.7503 26.2581 32.8675 26.1409C32.9847 26.0237 33.0506 25.8647 33.0506 25.699V22.8932C33.0506 22.7274 32.9847 22.5685 32.8675 22.4512C32.7503 22.334 32.5914 22.2682 32.4256 22.2682ZM25.2018 29.1354H22.0222C21.8564 29.1354 21.6974 29.2012 21.5802 29.3184C21.463 29.4356 21.3972 29.5946 21.3972 29.7604V32.5639C21.3972 32.7296 21.463 32.8886 21.5802 33.0058C21.6974 33.123 21.8564 33.1889 22.0222 33.1889H25.2018C25.3676 33.1889 25.5266 33.123 25.6438 33.0058C25.761 32.8886 25.8268 32.7296 25.8268 32.5639V29.7604C25.8268 29.5947 25.761 29.4357 25.6438 29.3185C25.5266 29.2013 25.3676 29.1354 25.2018 29.1354Z" fill="#484868"/>
<path d="M10.7566 15.4033H9.97534C10.1411 15.4033 10.3001 15.4691 10.4173 15.5863C10.5345 15.7035 10.6003 15.8625 10.6003 16.0283V18.834C10.6003 18.9998 10.5345 19.1588 10.4173 19.276C10.3001 19.3932 10.1411 19.459 9.97534 19.459H10.7566C10.9224 19.459 11.0813 19.3932 11.1985 19.276C11.3157 19.1588 11.3816 18.9998 11.3816 18.834V16.0283C11.3816 15.8625 11.3157 15.7035 11.1985 15.5863C11.0813 15.4691 10.9224 15.4033 10.7566 15.4033ZM17.9781 29.1354H17.1968C17.3626 29.1354 17.5216 29.2013 17.6388 29.3185C17.756 29.4357 17.8218 29.5947 17.8218 29.7604V32.564C17.8218 32.7297 17.756 32.8887 17.6388 33.0059C17.5216 33.1231 17.3626 33.189 17.1968 33.189H17.9781C18.1438 33.189 18.3028 33.1231 18.42 33.0059C18.5372 32.8887 18.6031 32.7297 18.6031 32.564V29.7604C18.6031 29.5947 18.5372 29.4357 18.42 29.3185C18.3028 29.2013 18.1438 29.1354 17.9781 29.1354ZM17.9781 22.2682H17.1968C17.3626 22.2682 17.5216 22.334 17.6388 22.4512C17.756 22.5685 17.8218 22.7274 17.8218 22.8932V25.699C17.8218 25.8647 17.756 26.0237 17.6388 26.1409C17.5216 26.2581 17.3626 26.324 17.1968 26.324H17.9781C18.1438 26.324 18.3028 26.2581 18.42 26.1409C18.5372 26.0237 18.6031 25.8647 18.6031 25.699V22.8932C18.6031 22.7274 18.5372 22.5685 18.42 22.4512C18.3028 22.334 18.1438 22.2682 17.9781 22.2682ZM10.7566 29.1354H9.97534C10.1411 29.1354 10.3001 29.2013 10.4173 29.3185C10.5345 29.4357 10.6003 29.5947 10.6003 29.7604V32.564C10.6003 32.7297 10.5345 32.8887 10.4173 33.0059C10.3001 33.1231 10.1411 33.189 9.97534 33.189H10.7566C10.9224 33.189 11.0813 33.1231 11.1985 33.0059C11.3157 32.8887 11.3816 32.7297 11.3816 32.564V29.7604C11.3816 29.5947 11.3157 29.4357 11.1985 29.3185C11.0813 29.2013 10.9224 29.1354 10.7566 29.1354ZM10.7566 22.2682H9.97534C10.1411 22.2682 10.3001 22.334 10.4173 22.4512C10.5345 22.5685 10.6003 22.7274 10.6003 22.8932V25.699C10.6003 25.8647 10.5345 26.0237 10.4173 26.1409C10.3001 26.2581 10.1411 26.324 9.97534 26.324H10.7566C10.9224 26.324 11.0813 26.2581 11.1985 26.1409C11.3157 26.0237 11.3816 25.8647 11.3816 25.699V22.8932C11.3816 22.7274 11.3157 22.5685 11.1985 22.4512C11.0813 22.334 10.9224 22.2682 10.7566 22.2682ZM25.2018 29.1354H24.4206C24.5863 29.1354 24.7453 29.2013 24.8625 29.3185C24.9797 29.4357 25.0456 29.5947 25.0456 29.7604V32.564C25.0456 32.7297 24.9797 32.8887 24.8625 33.0059C24.7453 33.1231 24.5863 33.189 24.4206 33.189H25.2018C25.3676 33.189 25.5266 33.1231 25.6438 33.0059C25.761 32.8887 25.8268 32.7297 25.8268 32.564V29.7604C25.8268 29.5947 25.761 29.4357 25.6438 29.3185C25.5266 29.2013 25.3676 29.1354 25.2018 29.1354ZM25.2018 15.4033H24.4206C24.5863 15.4033 24.7453 15.4691 24.8625 15.5863C24.9797 15.7035 25.0456 15.8625 25.0456 16.0283V18.834C25.0456 18.9998 24.9797 19.1588 24.8625 19.276C24.7453 19.3932 24.5863 19.459 24.4206 19.459H25.2018C25.3676 19.459 25.5266 19.3932 25.6438 19.276C25.761 19.1588 25.8268 18.9998 25.8268 18.834V16.0283C25.8268 15.8625 25.761 15.7035 25.6438 15.5863C25.5266 15.4691 25.3676 15.4033 25.2018 15.4033ZM17.9781 15.4033H17.1968C17.3626 15.4033 17.5216 15.4691 17.6388 15.5863C17.756 15.7035 17.8218 15.8625 17.8218 16.0283V18.834C17.8218 18.9998 17.756 19.1588 17.6388 19.276C17.5216 19.3932 17.3626 19.459 17.1968 19.459H17.9781C18.1438 19.459 18.3028 19.3932 18.42 19.276C18.5372 19.1588 18.6031 18.9998 18.6031 18.834V16.0283C18.6031 15.8625 18.5372 15.7035 18.42 15.5863C18.3028 15.4691 18.1438 15.4033 17.9781 15.4033ZM32.4256 22.2682H31.6443C31.8101 22.2682 31.9691 22.334 32.0863 22.4512C32.2035 22.5685 32.2693 22.7274 32.2693 22.8932V25.699C32.2693 25.8647 32.2035 26.0237 32.0863 26.1409C31.9691 26.2581 31.8101 26.324 31.6443 26.324H32.4256C32.5913 26.324 32.7503 26.2581 32.8675 26.1409C32.9847 26.0237 33.0506 25.8647 33.0506 25.699V22.8932C33.0506 22.7274 32.9847 22.5685 32.8675 22.4512C32.7503 22.334 32.5913 22.2682 32.4256 22.2682ZM25.2018 22.2682H24.4206C24.5863 22.2682 24.7453 22.334 24.8625 22.4512C24.9797 22.5685 25.0456 22.7274 25.0456 22.8932V25.699C25.0456 25.8647 24.9797 26.0237 24.8625 26.1409C24.7453 26.2581 24.5863 26.324 24.4206 26.324H25.2018C25.3676 26.324 25.5266 26.2581 25.6438 26.1409C25.761 26.0237 25.8268 25.8647 25.8268 25.699V22.8932C25.8268 22.7274 25.761 22.5685 25.6438 22.4512C25.5266 22.334 25.3676 22.2682 25.2018 22.2682Z" fill="#3D3D54"/>
<path d="M30.4414 19.2797C30.2766 19.2797 30.1184 19.2146 30.0014 19.0986L28.717 17.8252C28.6001 17.7083 28.5343 17.5499 28.5339 17.3846C28.5336 17.2193 28.5987 17.0606 28.7151 16.9432C28.8315 16.8258 28.9896 16.7593 29.1549 16.7582C29.3202 16.7572 29.4792 16.8216 29.5971 16.9375L30.4018 17.735L32.0376 15.8037C32.1448 15.6772 32.2978 15.5985 32.463 15.5848C32.6282 15.5711 32.792 15.6236 32.9185 15.7307C33.045 15.8379 33.1237 15.9909 33.1374 16.1561C33.1511 16.3213 33.0986 16.4852 32.9914 16.6116L30.9186 19.0587C30.8629 19.1245 30.7942 19.178 30.7168 19.2159C30.6393 19.2538 30.5549 19.2753 30.4688 19.2791C30.4596 19.2795 30.4505 19.2797 30.4414 19.2797Z" fill="#D22E2E"/>
<path d="M32.613 36.972C32.555 37.0301 32.4861 37.0762 32.4102 37.1076C32.3344 37.139 32.2531 37.1552 32.171 37.1552H4.40326C3.74497 37.1545 3.11388 36.8926 2.6484 36.4271C2.18292 35.9616 1.92107 35.3305 1.92029 34.6723V36.5014C1.92107 37.1597 2.18292 37.7908 2.6484 38.2563C3.11388 38.7217 3.74497 38.9836 4.40326 38.9844H35.599C36.2571 38.9834 36.8878 38.7215 37.3529 38.2559C37.818 37.7904 38.0794 37.1594 38.0798 36.5014V31.2441C38.0798 31.4098 38.014 31.5687 37.8968 31.6859L32.613 36.972Z" fill="#D1C9C9"/>
<path d="M38.0797 31.2441V31.1622H33.3547C33.0232 31.1622 32.7053 31.2939 32.4709 31.5283C32.2364 31.7627 32.1047 32.0806 32.1047 32.4122V37.1552H32.1709C32.253 37.1552 32.3343 37.139 32.4102 37.1076C32.486 37.0762 32.5549 37.0301 32.6129 36.972L37.8968 31.6859C38.0139 31.5687 38.0797 31.4098 38.0797 31.2441Z" fill="#BCB3B3"/>
<path d="M35.599 4.21344H29.0047V6.57922C29.0415 6.66125 29.328 6.86196 29.8016 6.86196C29.9674 6.86196 30.1263 6.9278 30.2436 7.04501C30.3608 7.16222 30.4266 7.3212 30.4266 7.48696C30.4266 7.65272 30.3608 7.81169 30.2436 7.9289C30.1263 8.04611 29.9674 8.11196 29.8016 8.11196C28.6539 8.11196 27.7547 7.4425 27.7547 6.58781V4.21344H19.2032V6.57875C19.2405 6.6611 19.5275 6.86196 20.0001 6.86196C20.1658 6.86196 20.3248 6.9278 20.442 7.04501C20.5592 7.16222 20.6251 7.3212 20.6251 7.48696C20.6251 7.65272 20.5592 7.81169 20.442 7.9289C20.3248 8.04611 20.1658 8.11196 20.0001 8.11196C18.8523 8.11196 17.9532 7.4425 17.9532 6.58781V4.21344H9.40412V6.57875C9.44146 6.6611 9.72841 6.86196 10.201 6.86196C10.3668 6.86196 10.5257 6.9278 10.6429 7.04501C10.7601 7.16222 10.826 7.3212 10.826 7.48696C10.826 7.65272 10.7601 7.81169 10.6429 7.9289C10.5257 8.04611 10.3668 8.11196 10.201 8.11196C9.05333 8.11196 8.15412 7.4425 8.15412 6.58781V4.21344H4.40326C3.74497 4.21416 3.11385 4.47598 2.64836 4.94146C2.18287 5.40693 1.92103 6.03804 1.92029 6.69633V12.025H38.0798V6.69633C38.0794 6.03831 37.818 5.40733 37.3529 4.94184C36.8878 4.47635 36.2571 4.21439 35.599 4.21344Z" fill="#D22E2E"/>
<path d="M1.92029 12.025H38.0798V13.001H1.92029V12.025Z" fill="#D1C9C9"/>
<path d="M20.625 7.48695C20.625 7.65271 20.5592 7.81168 20.442 7.92889C20.3248 8.0461 20.1658 8.11195 20 8.11195C18.8523 8.11195 17.9531 7.4425 17.9531 6.58781V2.5375C17.9531 1.68414 18.8523 1.01562 20 1.01562C21.1478 1.01562 22.0469 1.68414 22.0469 2.5375V4.21344H20.7969V2.54758C20.7578 2.46531 20.4699 2.26562 20 2.26562C19.5301 2.26562 19.2422 2.46531 19.2031 2.54758V6.57883C19.2405 6.66117 19.5274 6.86203 20 6.86203C20.1658 6.86203 20.3247 6.92787 20.4419 7.04506C20.5591 7.16226 20.625 7.32121 20.625 7.48695ZM10.2008 6.86195C9.72838 6.86195 9.44143 6.66109 9.40393 6.57875V2.5475C9.44299 2.46523 9.73073 2.26555 10.2008 2.26555C10.6709 2.26555 10.9586 2.46523 10.9977 2.5475V4.21344H12.2477V2.5375C12.2477 1.68414 11.3487 1.01562 10.2008 1.01562C9.05292 1.01562 8.15393 1.68414 8.15393 2.5375V6.58781C8.15393 7.4425 9.05299 8.11195 10.2008 8.11195C10.3666 8.11195 10.5255 8.0461 10.6427 7.92889C10.76 7.81168 10.8258 7.65271 10.8258 7.48695C10.8258 7.32119 10.76 7.16222 10.6427 7.04501C10.5255 6.9278 10.3666 6.86195 10.2008 6.86195ZM29.8014 6.86195C29.328 6.86195 29.0414 6.66125 29.0046 6.57922V2.54687C29.0428 2.46484 29.3303 2.26562 29.8014 2.26562C30.2711 2.26562 30.5578 2.46516 30.596 2.54687V4.21344H31.846V2.5375C31.846 1.68414 30.9475 1.01562 29.8014 1.01562C28.6537 1.01562 27.7546 1.68414 27.7546 2.5375V6.58781C27.7546 7.4425 28.6535 8.11195 29.8014 8.11195C29.9672 8.11195 30.1262 8.0461 30.2434 7.92889C30.3606 7.81168 30.4264 7.65271 30.4264 7.48695C30.4264 7.32119 30.3606 7.16222 30.2434 7.04501C30.1262 6.9278 29.9672 6.86195 29.8014 6.86195Z" fill="#484868"/>
<path d="M10.2047 6.31514C9.91794 6.31519 9.64123 6.42087 9.42745 6.61202C9.51089 6.7053 9.78315 6.86202 10.2009 6.86202C10.3666 6.86202 10.5256 6.92786 10.6428 7.04508C10.76 7.16229 10.8259 7.32126 10.8259 7.48702C10.8259 7.65278 10.76 7.81175 10.6428 7.92896C10.5256 8.04617 10.3666 8.11202 10.2009 8.11202C9.82221 8.11541 9.44734 8.03634 9.10229 7.8803C9.17447 8.08239 9.30077 8.26078 9.46743 8.39597C9.63408 8.53117 9.83467 8.61798 10.0473 8.64693C10.2599 8.67588 10.4764 8.64586 10.6732 8.56014C10.8699 8.47442 11.0393 8.3363 11.1629 8.16085C11.2865 7.98541 11.3595 7.77939 11.3739 7.56528C11.3884 7.35117 11.3437 7.1372 11.2448 6.94674C11.146 6.75628 10.9967 6.59665 10.8132 6.48526C10.6298 6.37388 10.4193 6.31503 10.2047 6.31514ZM20 6.31514C19.7143 6.3151 19.4385 6.41993 19.225 6.60975C19.3061 6.7028 19.5792 6.86194 20 6.86194C20.1658 6.86194 20.3248 6.92779 20.442 7.045C20.5592 7.16221 20.625 7.32118 20.625 7.48694C20.625 7.6527 20.5592 7.81167 20.442 7.92888C20.3248 8.04609 20.1658 8.11194 20 8.11194C19.6196 8.11534 19.243 8.03551 18.8967 7.87803C18.9684 8.08041 19.0944 8.25919 19.2608 8.39481C19.4273 8.53043 19.6278 8.61769 19.8405 8.64704C20.0532 8.67639 20.2699 8.64671 20.4669 8.56123C20.6639 8.47576 20.8335 8.33779 20.9574 8.16239C21.0812 7.987 21.1545 7.78093 21.1692 7.56672C21.1838 7.3525 21.1393 7.13838 21.0405 6.94775C20.9417 6.75713 20.7924 6.59733 20.6089 6.48583C20.4254 6.37433 20.2147 6.31542 20 6.31553V6.31514ZM29.8003 6.31514C29.5148 6.31504 29.2391 6.41976 29.0257 6.60944C29.1056 6.70209 29.3787 6.86194 29.8014 6.86194C29.9672 6.86194 30.1262 6.92779 30.2434 7.045C30.3606 7.16221 30.4264 7.32118 30.4264 7.48694C30.4264 7.6527 30.3606 7.81167 30.2434 7.92888C30.1262 8.04609 29.9672 8.11194 29.8014 8.11194C29.4205 8.11549 29.0434 8.03548 28.6967 7.87756C28.7685 8.07994 28.8944 8.2587 29.0609 8.39432C29.2273 8.52994 29.4279 8.6172 29.6406 8.64656C29.8532 8.67592 30.0699 8.64625 30.2669 8.5608C30.4638 8.47535 30.6335 8.33739 30.7574 8.16202C30.8813 7.98665 30.9545 7.7806 30.9692 7.5664C30.9839 7.35219 30.9394 7.13807 30.8406 6.94744C30.7419 6.75681 30.5926 6.597 30.4091 6.48547C30.2256 6.37394 30.015 6.31507 29.8003 6.31514Z" fill="#AD1E1E"/>
</g>
<defs>
<clipPath id="clip0_6127_60">
<rect width="40" height="40" fill="white"/>
</clipPath>
</defs>
</svg>
