<svg width="40" height="40" viewBox="0 0 40 40" fill="none" xmlns="http://www.w3.org/2000/svg">
<g clip-path="url(#clip0_6127_28)">
<path d="M39.9895 18.2819C39.9849 18.2068 39.9699 18.1327 39.945 18.0617C39.9357 18.0351 39.929 18.0088 39.9171 17.9834C39.877 17.8971 39.8263 17.8153 39.7567 17.7454C39.7563 17.7449 39.7559 17.7443 39.7559 17.7443L34.9999 12.9883V8.33336C34.9999 8.31523 34.9907 8.29898 34.9895 8.28086C34.9849 8.2079 34.9706 8.13588 34.9469 8.06672C34.9377 8.04 34.9308 8.01391 34.919 7.9882C34.8784 7.89969 34.8274 7.81555 34.7559 7.74414L27.2559 0.244141C27.1842 0.172422 27.0999 0.12125 27.0111 0.0805469C26.9861 0.0691406 26.9609 0.0623438 26.9349 0.0533594C26.8643 0.0289768 26.7908 0.0143365 26.7163 0.00984375C26.6992 0.00875 26.6838 0 26.6666 0H5.83335C5.37311 0 4.99999 0.373125 4.99999 0.833359V12.9883L0.244375 17.7439C0.244375 17.7439 0.243671 17.7449 0.243125 17.7454C0.173515 17.8152 0.12289 17.897 0.0827342 17.9834C0.0708592 18.0088 0.0641405 18.035 0.0548436 18.0617C0.0299756 18.1327 0.0149914 18.2068 0.0103125 18.2819C0.00921873 18.2998 0 18.315 0 18.3334V34.1667C0 34.6269 0.373124 35 0.833358 35H4.99999V39.1666C4.99999 39.6269 5.37311 40 5.83335 40H34.1667C34.6269 40 35 39.6269 35 39.1666V35H39.1666C39.6269 35 40 34.6269 40 34.1666V18.3334C39.9999 18.315 39.9907 18.2998 39.9895 18.2819Z" fill="#314E55"/>
<path d="M37.1548 17.5H34.9999V15.3451L37.1548 17.5Z" fill="#EAEAEA"/>
<path d="M32.1549 7.50001H27.5V2.84509L32.1549 7.50001Z" fill="#D8D8D8"/>
<path d="M6.66665 1.66663H25.8333V8.33327C25.8333 8.7935 26.2064 9.16663 26.6666 9.16663H33.3332V17.5H6.66665V1.66663ZM5.00001 15.3451V17.5H2.84509L5.00001 15.3451ZM6.66665 35H33.3332V38.3333H6.66665V35Z" fill="#EAEAEA"/>
<path d="M38.3333 33.3333H1.66663V19.1666H38.3333V33.3333Z" fill="#D26CBA"/>
<path d="M15.1188 21.6375H16.8188V31.6667H15.1188V21.6375ZM21.3813 21.6367H18.8596V31.6667H21.3671C22.661 31.6667 23.6409 31.23 24.3067 30.3567C24.9726 29.4826 25.3055 28.2523 25.3055 26.6659C25.3055 25.0792 24.9726 23.8442 24.3067 22.9608C23.6409 22.0784 22.6657 21.6367 21.3813 21.6367Z" fill="#314E55"/>
<path d="M23.4425 28.2025C23.3339 28.6423 23.1804 29.0085 22.982 29.3008C22.7837 29.5933 22.5476 29.8133 22.2737 29.9592C21.9998 30.1058 21.7023 30.1791 21.3812 30.1791H20.5737V23.1242H21.3812C21.7023 23.1242 21.9998 23.1975 22.2737 23.3441C22.5476 23.49 22.7837 23.71 22.982 24.0025C23.1804 24.295 23.3339 24.6633 23.4425 25.1076C23.551 25.5517 23.6054 26.0709 23.6054 26.6659C23.6054 27.2517 23.551 27.7633 23.4425 28.2025Z" fill="#D26CBA"/>
</g>
<defs>
<clipPath id="clip0_6127_28">
<rect width="40" height="40" fill="white"/>
</clipPath>
</defs>
</svg>
