<svg width="23" height="39" viewBox="0 0 23 39" fill="none" xmlns="http://www.w3.org/2000/svg">
<g clip-path="url(#clip0_6127_40)">
<mask id="mask0_6127_40" style="mask-type:luminance" maskUnits="userSpaceOnUse" x="-8" y="0" width="39" height="39">
<path d="M-7.80505 0H30.8048V39H-7.80505V0Z" fill="white"/>
</mask>
<g mask="url(#mask0_6127_40)">
<path d="M22.4341 2.29582V36.7042C22.4341 37.6571 21.6702 38.4287 20.7269 38.4287H2.27266C1.42272 38.4287 0.71839 37.8026 0.587177 36.9814C0.572925 36.8916 0.565308 36.7986 0.565308 36.7042V2.29582C0.565308 1.34291 1.32921 0.571289 2.27266 0.571289H20.7269C21.6702 0.571289 22.4341 1.34291 22.4341 2.29582Z" fill="#B3F6FF"/>
<path d="M22.4341 2.29582V36.7042C22.4341 37.6571 21.6702 38.4287 20.7268 38.4287H2.27264C1.4227 38.4287 0.718371 37.8026 0.587158 36.9814H18.917C19.8604 36.9814 20.6243 36.2098 20.6243 35.2569V2.29582C20.6243 1.34291 19.8604 0.571289 18.917 0.571289H20.7268C21.6702 0.571289 22.4341 1.34291 22.4341 2.29582Z" fill="#A0DBF2"/>
<path d="M22.4341 35.7627V36.7042C22.4341 37.6571 21.6702 38.4287 20.7269 38.4287H2.27266C1.42272 38.4287 0.71839 37.8026 0.587177 36.9814C0.572925 36.8916 0.565308 36.7986 0.565308 36.7042V35.7627H22.4341Z" fill="#616270"/>
<path d="M17.1555 0.571265V2.25085C17.1555 2.76578 16.7423 3.18396 16.2317 3.18396H6.76776C6.25724 3.18396 5.84399 2.76578 5.84399 2.25085V0.571265H17.1555Z" fill="#616270"/>
<path d="M17.1555 0.955933V2.25085C17.1555 2.76578 16.7423 3.18396 16.2317 3.18396H6.76776C6.25724 3.18396 5.84399 2.76578 5.84399 2.25085V1.88904H16.2317C16.7423 1.88904 17.1555 1.47085 17.1555 0.955933Z" fill="#40414C"/>
<path d="M22.4341 35.7627V36.7042C22.4341 37.6571 21.6702 38.4287 20.7268 38.4287H2.27264C1.4227 38.4287 0.718371 37.8026 0.587158 36.9814H18.917C19.6863 36.9814 20.3362 36.468 20.5496 35.7627H22.4341Z" fill="#40414C"/>
<path d="M17.9594 24.7196L17.424 25.6215L17.2347 25.9406C17.0421 26.2706 16.7314 26.5133 16.3667 26.6186C15.1609 26.9522 12.5027 27.02 8.24132 22.7155C3.98067 18.4111 4.04703 15.726 4.37733 14.508C4.48139 14.1401 4.7212 13.8255 5.04847 13.6313L5.39536 13.421L6.25729 12.8985C6.39022 12.8183 6.54859 12.7927 6.69963 12.8272C6.85067 12.8617 6.98281 12.9535 7.0687 13.0836L8.99542 16.0033C9.07972 16.1311 9.11304 16.2864 9.0887 16.438C9.06436 16.5895 8.98417 16.7262 8.86421 16.8206L7.99549 17.4559C7.88178 17.5442 7.8032 17.6708 7.77401 17.8126C7.74482 17.9545 7.76694 18.1022 7.83637 18.229C8.15453 18.8056 8.45549 19.4866 9.94551 20.994C11.4364 22.5015 12.1121 22.8031 12.683 23.1246C12.8085 23.1947 12.9547 23.2171 13.0952 23.1876C13.2356 23.1581 13.3609 23.0787 13.4484 22.9639L14.0773 22.0864C14.1707 21.9652 14.306 21.8841 14.4561 21.8596C14.6062 21.835 14.7599 21.8686 14.8864 21.9538L17.7769 23.9C17.9058 23.9867 17.9967 24.1202 18.0307 24.2729C18.0647 24.4255 18.0392 24.5855 17.9594 24.7196Z" fill="#51E08B"/>
<path d="M17.9594 24.7196L17.424 25.6215C16.2189 25.9551 13.5977 25.9886 9.33703 21.6842C5.07555 17.3797 5.06507 14.6383 5.39536 13.421L6.25729 12.8985C6.39022 12.8183 6.54859 12.7927 6.69963 12.8272C6.85067 12.8616 6.98281 12.9534 7.0687 13.0836L8.99542 16.0033C9.07972 16.1311 9.11304 16.2863 9.0887 16.4379C9.06436 16.5895 8.98417 16.7262 8.86421 16.8206L7.99549 17.4559C7.88179 17.5442 7.80321 17.6708 7.77401 17.8126C7.74482 17.9545 7.76694 18.1022 7.83637 18.229C8.15453 18.8056 8.45549 19.4866 9.94551 20.994C11.4364 22.5015 12.1121 22.8031 12.683 23.1246C12.8085 23.1947 12.9547 23.217 13.0952 23.1876C13.2356 23.1581 13.3609 23.0787 13.4484 22.9638L14.0773 22.0863C14.1707 21.9652 14.306 21.8841 14.4561 21.8596C14.6062 21.835 14.7599 21.8686 14.8864 21.9538L17.7769 23.9C17.9058 23.9867 17.9967 24.1202 18.0307 24.2729C18.0647 24.4255 18.0392 24.5855 17.9594 24.7196Z" fill="#1BC18A"/>
<path d="M16.5901 2.25088C16.59 2.34677 16.5523 2.4387 16.4852 2.5065C16.418 2.57431 16.327 2.61244 16.2321 2.61254H6.76788C6.67295 2.61244 6.58193 2.57431 6.51481 2.5065C6.44768 2.4387 6.40993 2.34677 6.40983 2.25088V1.14258H16.5901V2.25088ZM22.4344 4.53642C22.5844 4.53642 22.7283 4.47622 22.8343 4.36909C22.9404 4.26195 23 4.11664 23 3.96513V2.29551C23 1.02977 21.9804 0 20.7274 0H2.27262C1.01954 0 0 1.02977 0 2.29551V36.7044C0 37.9702 1.01954 39 2.27262 39H20.7274C21.9804 39 23 37.9702 23 36.7044V6.63365C23 6.48214 22.9404 6.33683 22.8343 6.22969C22.7283 6.12256 22.5844 6.06237 22.4344 6.06237C22.2844 6.06237 22.1406 6.12256 22.0345 6.22969C21.9284 6.33683 21.8688 6.48214 21.8688 6.63365V35.1914H7.16845C7.01845 35.1914 6.8746 35.2516 6.76853 35.3587C6.66247 35.4659 6.60288 35.6112 6.60288 35.7627C6.60288 35.9142 6.66247 36.0595 6.76853 36.1667C6.8746 36.2738 7.01845 36.334 7.16845 36.334H21.8688V36.7044C21.8688 37.3402 21.3568 37.8574 20.7274 37.8574H2.27262C1.64318 37.8574 1.13115 37.3402 1.13115 36.7044V36.334H4.55943C4.70943 36.334 4.85328 36.2738 4.95935 36.1667C5.06541 36.0595 5.125 35.9142 5.125 35.7627C5.125 35.6112 5.06541 35.4659 4.95935 35.3587C4.85328 35.2516 4.70943 35.1914 4.55943 35.1914H1.13115V2.29551C1.13115 1.65978 1.64318 1.14258 2.27262 1.14258H5.27868V2.25088C5.27868 3.08031 5.94674 3.75512 6.76788 3.75512H16.2321C17.0532 3.75512 17.7213 3.08031 17.7213 2.25088V1.14258H20.7274C21.3568 1.14258 21.8688 1.65978 21.8688 2.29551V3.96513C21.8688 4.11664 21.9284 4.26195 22.0345 4.36909C22.1406 4.47622 22.2844 4.53642 22.4344 4.53642Z" fill="black"/>
<path d="M7.34222 18.5067C7.3696 18.5565 7.39697 18.6072 7.42502 18.6591C7.73911 19.2414 8.13003 19.9659 9.54555 21.3975C10.9578 22.826 11.676 23.2207 12.253 23.5379C12.3051 23.5664 12.357 23.5951 12.4089 23.6242C12.9168 23.9082 13.5424 23.7771 13.8965 23.3126L13.9066 23.2989L14.5257 22.4344C14.538 22.4216 14.5578 22.4191 14.5724 22.4289L17.4633 24.3756C17.4713 24.3809 17.4768 24.3891 17.4789 24.3984C17.481 24.4078 17.4794 24.4177 17.4745 24.4259L16.747 25.651C16.6277 25.8555 16.4375 26.0039 16.2167 26.0675C13.5831 26.7973 10.34 24.0276 8.64123 22.3117C6.9424 20.5958 4.20043 17.3199 4.92127 14.6648C4.98567 14.4363 5.13264 14.2442 5.33904 14.1214L6.54778 13.3889C6.55595 13.3839 6.56572 13.3823 6.57504 13.3844C6.58437 13.3865 6.59251 13.3922 6.59778 13.4002L8.52472 16.32C8.52947 16.3273 8.53156 16.336 8.53063 16.3447C8.52969 16.3534 8.52579 16.3615 8.5196 16.3676L7.66377 16.993C7.65918 16.9963 7.65466 16.9997 7.6502 17.0032C7.1902 17.3609 7.06049 17.9928 7.34222 18.5067ZM9.19557 17.2838C9.20105 17.2799 9.2064 17.2758 9.21163 17.2717C9.69116 16.8943 9.80315 16.1983 9.46614 15.6866L7.53889 12.7664C7.37259 12.5139 7.11631 12.3358 6.82337 12.2692C6.53042 12.2027 6.22334 12.2527 5.966 12.409L4.76095 13.1393C4.30706 13.4095 3.97767 13.8401 3.83197 14.3572C3.37386 16.0443 3.69759 18.934 7.84129 23.1197C11.1198 26.4313 13.5949 27.3273 15.3155 27.3273C15.7696 27.3273 16.1713 27.2648 16.5212 27.1678C17.0279 27.0221 17.4543 26.6893 17.7193 26.2348L18.4446 25.0137C18.5993 24.7538 18.6489 24.4436 18.583 24.1477C18.5171 23.8518 18.3408 23.5929 18.0908 23.4249L15.1993 21.4779C14.6934 21.138 14.0044 21.2509 13.6307 21.7352L13.6186 21.7514L12.998 22.6181C12.993 22.6236 12.9864 22.6272 12.9791 22.6285C12.9718 22.6298 12.9643 22.6286 12.9578 22.6251C12.9041 22.595 12.8496 22.565 12.7937 22.5343C12.2807 22.2523 11.6424 21.9015 10.3459 20.5901C9.04535 19.2748 8.69764 18.6303 8.41825 18.1124C8.38868 18.0574 8.35968 18.0041 8.33122 17.9523C8.32755 17.9456 8.3262 17.9379 8.32737 17.9303C8.32855 17.9228 8.33218 17.9158 8.33771 17.9106L9.19557 17.2838Z" fill="black"/>
<path d="M14.7807 19.7844C14.7807 19.9359 14.8403 20.0812 14.9464 20.1884C15.0525 20.2955 15.1963 20.3557 15.3463 20.3557C15.4963 20.3557 15.6402 20.2955 15.7462 20.1884C15.8523 20.0812 15.9119 19.9359 15.9119 19.7844C15.9119 17.1282 13.7726 14.9673 11.143 14.9673C10.993 14.9673 10.8491 15.0275 10.743 15.1346C10.637 15.2418 10.5774 15.3871 10.5774 15.5386C10.5774 15.6901 10.637 15.8354 10.743 15.9426C10.8491 16.0497 10.993 16.1099 11.143 16.1099C13.1488 16.1099 14.7807 17.7583 14.7807 19.7844Z" fill="black"/>
<path d="M19.3249 19.7844C19.3249 15.2273 15.6545 11.5198 11.143 11.5198C10.993 11.5198 10.8491 11.58 10.743 11.6871C10.637 11.7942 10.5774 11.9395 10.5774 12.0911C10.5774 12.2426 10.637 12.3879 10.743 12.495C10.8491 12.6022 10.993 12.6624 11.143 12.6624C15.0308 12.6624 18.1938 15.8573 18.1938 19.7844C18.1938 19.9359 18.2534 20.0812 18.3594 20.1884C18.4655 20.2955 18.6094 20.3557 18.7594 20.3557C18.9094 20.3557 19.0532 20.2955 19.1593 20.1884C19.2653 20.0812 19.3249 19.9359 19.3249 19.7844Z" fill="black"/>
</g>
</g>
<defs>
<clipPath id="clip0_6127_40">
<rect width="23" height="39" fill="white"/>
</clipPath>
</defs>
</svg>
