<svg xmlns="http://www.w3.org/2000/svg" version="1.1" xmlns:xlink="http://www.w3.org/1999/xlink" width="512" height="512" x="0" y="0" viewBox="0 0 64 64" style="enable-background:new 0 0 512 512" xml:space="preserve" class=""><g><g data-name="arrow-refresh-transfer-user interface-interface"><path d="M32 62a29.736 29.736 0 0 1-22-9.6V55a4 4 0 0 1-8 0V38a1 1 0 0 1 1-1h17a4 4 0 0 1 0 8h-3.189a20.121 20.121 0 0 0 20.447 6.333 19.658 19.658 0 0 0 14.483-16.056 5.02 5.02 0 0 1 4.94-4.3h.127a4.91 4.91 0 0 1 4.836 5.661A29.826 29.826 0 0 1 32 62ZM9 48.66a1 1 0 0 1 .793.392 28 28 0 0 0 49.874-12.721 2.909 2.909 0 0 0-2.87-3.354h-.116a3.032 3.032 0 0 0-2.966 2.616A21.653 21.653 0 0 1 37.75 53.271a22.064 22.064 0 0 1-23.792-8.7A1 1 0 0 1 14.78 43H20a2 2 0 0 0 0-4H4v16a2 2 0 0 0 4 0v-5.34a1 1 0 0 1 1-1ZM7.325 33a5 5 0 0 1-4.945-5.786A30.006 30.006 0 0 1 54 11.6V9a4 4 0 0 1 8 0v17a1 1 0 0 1-1 1H44a4 4 0 0 1 0-8h3.188a19.994 19.994 0 0 0-34.923 9.735A5.022 5.022 0 0 1 7.325 33ZM32 4A27.862 27.862 0 0 0 4.354 27.53 3.006 3.006 0 0 0 7.325 31a3.029 3.029 0 0 0 2.966-2.588 21.993 21.993 0 0 1 39.751-8.983A1 1 0 0 1 49.22 21H44a2 2 0 0 0 0 4h16V9a2 2 0 0 0-4 0v5.34a1 1 0 0 1-1.793.608A27.78 27.78 0 0 0 32 4Z" fill="#000000" opacity="1" data-original="#000000" class=""></path></g></g></svg>