<svg width="33" height="29" viewBox="0 0 33 29" fill="none" xmlns="http://www.w3.org/2000/svg">
<g clip-path="url(#clip0_6127_78)">
<path d="M10.1882 7.86895V7.22257C10.1882 6.99397 10.3223 6.80411 10.5389 6.6791C11.1977 6.32102 11.8375 5.82955 12.2134 5.23261C12.4636 4.91815 12.6655 4.90195 13.367 4.78748C15.2694 4.48496 17.5153 4.52761 19.3066 4.90721C19.9892 5.04576 19.7533 5.74612 21.4791 6.67814L21.4804 6.67888L21.4808 6.67905C21.4853 6.68148 21.4873 6.68244 21.4918 6.68499C21.5505 6.71756 21.8315 6.89071 21.8315 7.22251L21.8316 7.8689C21.8382 7.87042 22.9281 7.84148 23.3897 8.60262V6.6855C23.3897 2.99333 20.0859 0.000549316 16.0099 0.000549316C11.9339 0.000549316 8.63013 2.99333 8.63013 6.6855V8.60279C8.89362 8.16818 9.45888 7.86895 10.1882 7.86895Z" fill="#7C6359"/>
<path d="M10.1881 6.6853C10.1881 3.23147 13.0792 0.389925 16.7889 0.0373939C12.4178 -0.378008 8.63013 2.72074 8.63013 6.6853V8.60259C8.89362 8.16799 9.45881 7.86875 10.1881 7.86875V6.6853Z" fill="#604C42"/>
<path d="M27.4269 27.6503L26.092 20.9095C25.8269 19.5734 24.5283 19.2993 24.5121 19.296L20.143 18.3991L18.5065 17.4017V15.8103C16.9318 16.4884 15.0884 16.4888 13.5125 15.81V17.4017L11.876 18.3991L7.50688 19.296C7.49069 19.2993 6.19216 19.5734 5.92698 20.9095L4.59219 27.6503C4.59206 27.6541 4.49252 29 6.10012 29H25.919C27.5265 29 27.4271 27.6541 27.4269 27.6503Z" fill="#F2BF81"/>
<path d="M15.123 16.2573C14.565 16.1802 14.0224 16.0294 13.5125 15.8099V17.4017L11.876 18.399L7.50688 19.2959C7.49069 19.2993 6.19216 19.5734 5.92698 20.9094L4.59219 27.6503C4.59206 27.6541 4.49252 29 6.10012 29H15.123V16.2573Z" fill="#DDA568"/>
<path d="M27.4269 27.6503L26.092 20.9094C25.8269 19.5733 24.5283 19.2993 24.5121 19.296L20.143 18.3991L18.5069 17.4019L18.3077 20.4143L16.0099 18.9629H16.0095L13.7118 20.4143L13.5126 17.4017L11.8761 18.3991L7.50694 19.296C7.49075 19.2993 6.19222 19.5734 5.92704 20.9094L4.59219 27.6503C4.59206 27.654 4.49252 29 6.10012 29H25.919C27.5265 29 27.4271 27.654 27.4269 27.6503Z" fill="#484868"/>
<path d="M6.14233 27.5722L7.55434 20.4416C7.68565 19.7799 8.05663 19.3645 8.41573 19.1094L7.50688 19.296C7.49069 19.2994 6.19216 19.5734 5.92698 20.9095L4.59219 27.6503C4.59206 27.6541 4.49252 29 6.10012 29H7.73742C6.0369 29 6.1422 27.5762 6.14233 27.5722Z" fill="#3D3D54"/>
<path d="M16.01 18.9628H16.0096L13.583 20.2976L14.2794 29H17.7401L18.4366 20.2975L16.01 18.9628Z" fill="#DADADA"/>
<path d="M8.46716 9.06206C8.46716 9.78564 9.23132 10.3721 10.2527 10.3721V7.75201C9.23132 7.75201 8.46716 8.33858 8.46716 9.06206ZM23.5527 9.06206C23.5527 9.78564 22.7886 10.3721 21.7672 10.3721V7.75201C22.7886 7.75201 23.5527 8.33858 23.5527 9.06206Z" fill="#F2BF81"/>
<path d="M21.8316 9.4075V7.10562C21.8316 6.86864 21.6754 6.66428 21.4849 6.56431L21.4805 6.56199C18.9157 5.02012 20.6748 4.94274 18.2992 4.61904C16.3011 4.36762 14.4151 4.44816 12.9 4.75249C12.6213 4.8055 12.4346 4.83785 12.2136 5.11567C11.8403 5.70841 11.1839 6.21348 10.5351 6.56431C10.3468 6.6606 10.1884 6.86881 10.1884 7.10562V9.4075L10.1882 9.40756V11.1617C10.1882 14.0744 12.7945 16.4353 16.01 16.4353C19.2255 16.4353 21.8317 14.0744 21.8317 11.1617V9.40756L21.8316 9.4075Z" fill="#FFDDAB"/>
<path d="M11.8011 11.1618V9.40761L11.8012 9.40755V5.63257C10.8777 6.58351 10.1884 6.49101 10.1884 7.10562V9.4075L10.1882 9.40755V11.1617C10.1882 14.3544 13.3001 16.8264 16.8164 16.3847C13.9827 16.029 11.8011 13.8265 11.8011 11.1618Z" fill="#F9CE95"/>
<path d="M9.30274 29V24.6465C9.30274 24.4048 9.08645 24.2089 8.81958 24.2089C8.55271 24.2089 8.33643 24.4048 8.33643 24.6465V29H9.30274ZM23.6835 29V24.6465C23.6835 24.4048 23.4672 24.2089 23.2003 24.2089C22.9335 24.2089 22.7172 24.4048 22.7172 24.6465V29H23.6835Z" fill="#3D3D54"/>
<path d="M17.7401 29L16.7262 21.1405L16.7852 21.0455H15.2347L15.2936 21.1405L14.2794 29H17.7401Z" fill="#C42323"/>
<path d="M20.4578 23.9017L19.3511 22.6486L19.3506 22.6481C19.1695 22.443 19.3009 22.3633 19.3653 22.3385L20.557 21.9595C20.557 21.9595 20.8075 21.8698 20.7615 21.6289V21.6286L20.1434 18.399L18.5069 17.4016L17.7401 29L20.4821 24.2518C20.4825 24.246 20.6001 24.0804 20.4578 23.9017ZM11.5617 23.9017L12.6684 22.6486C12.6694 22.6427 12.8858 22.4276 12.6542 22.3385L11.4624 21.9595C11.4624 21.9595 11.2119 21.8698 11.258 21.6289L11.8761 18.399L13.5126 17.4016L14.2793 29L11.5373 24.2518C11.537 24.246 11.4193 24.0804 11.5617 23.9017Z" fill="#60607C"/>
<path d="M13.5126 17.4016L16.0096 18.9628L13.7118 20.4142L13.5126 17.4016ZM18.5069 17.4016L16.01 18.9628L18.3077 20.4142L18.5069 17.4016Z" fill="#EDEDED"/>
<path d="M16.6557 21.0455H15.2347L15.2936 21.1405L14.2794 29H15.7648L16.7262 21.1405L16.6557 21.0455Z" fill="#AD1E1E"/>
<path d="M16.0099 18.9628L14.5247 19.901L15.2936 21.1405H16.7262L17.4951 19.901L16.0099 18.9628Z" fill="#D22E2E"/>
<path d="M16.0099 18.9628L14.5247 19.901L15.2936 21.1405H16.7262L17.4951 19.901L16.0099 18.9628Z" fill="#E84646"/>
</g>
<defs>
<clipPath id="clip0_6127_78">
<rect width="32.0145" height="29" fill="white" transform="translate(0.00231934)"/>
</clipPath>
</defs>
</svg>
