<svg width="24" height="25" viewBox="0 0 24 25" fill="none" xmlns="http://www.w3.org/2000/svg">
<path d="M15.3199 12.8441L14.9505 12.2412C14.7113 12.3859 14.58 12.6565 14.6151 12.9325C14.6501 13.2084 14.8449 13.4382 15.1127 13.5194L15.3199 12.8441ZM8.68006 12.8441L8.88726 13.5194C9.15504 13.4382 9.34985 13.2084 9.38495 12.9325C9.4199 12.6565 9.28861 12.3859 9.04947 12.2412L8.68006 12.8441ZM17.6835 7.41365C17.6835 9.45787 16.5907 11.2491 14.9505 12.2412L15.6893 13.4471C17.7354 12.2096 19.1044 9.97078 19.1044 7.41365H17.6835ZM12 1.76659C15.1389 1.76659 17.6835 4.29487 17.6835 7.41365H19.1044C19.1044 3.51518 15.9236 0.354828 12 0.354828V1.76659ZM6.31654 7.41365C6.31654 4.29487 8.8611 1.76659 12 1.76659V0.354828C8.07639 0.354828 4.89568 3.51518 4.89568 7.41365H6.31654ZM9.04947 12.2412C7.4093 11.2491 6.31654 9.45789 6.31654 7.41365H4.89568C4.89568 9.97078 6.26462 12.2096 8.31066 13.4471L9.04947 12.2412ZM8.47287 12.1689C3.98756 13.5279 0.609792 17.4095 0.015701 22.1528L1.42568 22.3271C1.94941 18.1456 4.92957 14.7184 8.88726 13.5194L8.47287 12.1689ZM0.015701 22.1528C-0.141318 23.4064 0.903896 24.3548 2.05396 24.3548V22.9431C1.63459 22.9431 1.38888 22.621 1.42568 22.3271L0.015701 22.1528ZM2.05396 24.3548H21.9461V22.9431H2.05396V24.3548ZM21.9461 24.3548C23.0961 24.3548 24.1413 23.4064 23.9843 22.1528L22.5742 22.3271C22.611 22.621 22.3654 22.9431 21.9461 22.9431V24.3548ZM23.9843 22.1528C23.3902 17.4095 20.0124 13.5279 15.527 12.1689L15.1127 13.5194C19.0704 14.7184 22.0505 18.1456 22.5742 22.3271L23.9843 22.1528Z" fill="#D6D6D6"/>
</svg>
