<svg width="24" height="25" viewBox="0 0 24 25" fill="none" xmlns="http://www.w3.org/2000/svg">
<g clip-path="url(#clip0_24_1609)">
<path d="M3.03198 0.354828V16.7529V18.179V21.9817H6.55346V24.3549L8.48907 23.6023L10.4247 24.3549V21.9817H20.968V18.179V16.7529V0.354828H3.03198ZM4.45801 1.78086H5.40868V16.7529H4.45801V1.78086ZM6.55346 20.5557H4.45801V20.0803H6.55351L6.55346 20.5557ZM7.97949 22.2704V21.9817V20.0804H8.99864V21.9817V22.2704L8.48907 22.0723L7.97949 22.2704ZM19.542 20.5557H10.4247V20.0803H19.542V20.5557ZM19.542 18.6543H10.4247H6.55351H4.45801V18.1789H19.542V18.6543ZM19.542 16.7529H6.83471V1.78086H19.5421V16.7529H19.542Z" fill="#D6D6D6"/>
<path d="M16.4163 4.30774H9.96069V5.73377H16.4163V4.30774Z" fill="#D6D6D6"/>
<path d="M16.4163 6.68445H9.96069V8.11048H16.4163V6.68445Z" fill="#D6D6D6"/>
</g>
<defs>
<clipPath id="clip0_24_1609">
<rect width="24" height="24" fill="white" transform="translate(0 0.354828)"/>
</clipPath>
</defs>
</svg>
