<svg width="32" height="29" viewBox="0 0 32 29" fill="none" xmlns="http://www.w3.org/2000/svg">
<path d="M7.55322 13.9525C8.64359 13.9525 9.5274 13.0683 9.5274 11.9783L10.2482 4.42508H7.0899L5.57898 11.9783C5.57903 13.0683 6.46284 13.9525 7.55322 13.9525Z" fill="#D6D6D6"/>
<path d="M13.1324 13.9525C14.2224 13.9525 15.1062 13.0683 15.1062 11.9783L14.7117 4.42508H11.553L11.1582 11.9783C11.1582 13.0683 12.042 13.9525 13.1324 13.9525Z" fill="#D6D6D6"/>
<path d="M18.7114 13.9525C19.8014 13.9525 20.6852 13.0683 20.6852 11.9783L19.1746 4.42502H16.0164L16.7372 11.9783C16.7372 13.0683 17.621 13.9525 18.7114 13.9525Z" fill="#D6D6D6"/>
<path d="M23.6378 4.42502H20.4795L22.3163 11.9783C22.3163 12.901 22.9519 13.6697 23.8078 13.8859V26.7732H20.8327V18.0534H13.328V26.7732H2.45695V13.886C3.31233 13.6697 3.94837 12.901 3.94837 11.9783L5.78487 4.42507H2.62653L0 11.9783C0 12.6291 0.318968 13.2018 0.805268 13.5616V28.425H25.4595V13.5616C25.9453 13.2018 26.2643 12.6291 26.2643 11.9783L23.6378 4.42502ZM19.5941 26.7732H14.5666V19.2923H19.5941V26.7732Z" fill="#D6D6D6"/>
<path d="M10.0021 17.4683H5.61218V21.8581H10.0021V17.4683Z" fill="#D6D6D6"/>
<rect x="16" y="0.284637" width="16" height="16" rx="8" fill="#F37B7B"/>
<path d="M23.892 11.3746C23.5186 11.3746 23.1386 11.3246 22.752 11.2246C22.3653 11.118 22.0286 10.9613 21.742 10.7546C21.6353 10.688 21.562 10.608 21.522 10.5146C21.4886 10.4146 21.482 10.3246 21.502 10.2446C21.522 10.158 21.562 10.0846 21.622 10.0246C21.6886 9.96464 21.7686 9.9313 21.862 9.92464C21.9553 9.9113 22.0586 9.93797 22.172 10.0046C22.4586 10.178 22.7386 10.3046 23.012 10.3846C23.2853 10.458 23.5686 10.4946 23.862 10.4946C24.182 10.4946 24.452 10.448 24.672 10.3546C24.892 10.2613 25.0553 10.1246 25.162 9.94464C25.2753 9.76464 25.332 9.54797 25.332 9.29464C25.332 8.91464 25.2053 8.6313 24.952 8.44464C24.7053 8.2513 24.3453 8.15464 23.872 8.15464H23.192C23.0386 8.15464 22.922 8.11797 22.842 8.04464C22.762 7.96464 22.722 7.85464 22.722 7.71464C22.722 7.5813 22.762 7.47797 22.842 7.40464C22.922 7.32464 23.0386 7.28464 23.192 7.28464H23.772C24.0586 7.28464 24.302 7.23797 24.502 7.14464C24.702 7.04464 24.8553 6.90797 24.962 6.73464C25.0753 6.55464 25.132 6.33797 25.132 6.08464C25.132 5.74464 25.0186 5.48464 24.792 5.30464C24.572 5.11797 24.2486 5.02464 23.822 5.02464C23.5486 5.02464 23.2886 5.0613 23.042 5.13464C22.802 5.20797 22.552 5.33797 22.292 5.52464C22.192 5.5913 22.0953 5.6213 22.002 5.61464C21.9153 5.6013 21.8386 5.56797 21.772 5.51464C21.712 5.45464 21.6686 5.3813 21.642 5.29464C21.622 5.20797 21.6286 5.11797 21.662 5.02464C21.6953 4.9313 21.762 4.8513 21.862 4.78464C22.142 4.57797 22.4586 4.4213 22.812 4.31464C23.1653 4.2013 23.5286 4.14464 23.902 4.14464C24.3686 4.14464 24.7686 4.21797 25.102 4.36464C25.442 4.5113 25.6986 4.7213 25.872 4.99464C26.052 5.26797 26.142 5.59464 26.142 5.97464C26.142 6.2613 26.0886 6.5213 25.982 6.75464C25.8753 6.98797 25.722 7.18797 25.522 7.35464C25.3286 7.51464 25.092 7.62797 24.812 7.69464V7.58464C25.2986 7.66464 25.6753 7.86464 25.942 8.18464C26.2086 8.49797 26.342 8.8913 26.342 9.36464C26.342 9.77797 26.242 10.138 26.042 10.4446C25.8486 10.7446 25.5686 10.9746 25.202 11.1346C24.8353 11.2946 24.3986 11.3746 23.892 11.3746Z" fill="black"/>
</svg>
