<svg width="34" height="29" viewBox="0 0 34 29" fill="none" xmlns="http://www.w3.org/2000/svg">
<path fill-rule="evenodd" clip-rule="evenodd" d="M12.4988 3.6853H24V6.5606H12.4988V3.6853ZM12.4988 13.7489H24V16.6242H12.4988V13.7489ZM0.997556 20.9371H8.18582V28.1254H0.997556V20.9371ZM3.15404 23.0936V25.9689H6.02934V23.0936H3.15404ZM12.4988 23.8124H24V26.6877H12.4988V23.8124ZM8.03864 1.04309L9.74792 2.35792L4.62408 9.0189L0 4.97283L1.42005 3.34992L4.31566 5.88203L8.03864 1.04309ZM8.03864 11.1067L9.74792 12.4215L4.62408 19.0825L0 15.0364L1.42005 13.4135L4.31566 15.9456L8.03864 11.1067Z" fill="#D6D6D6"/>
<rect x="18" y="0.584229" width="16" height="16" rx="8" fill="#F37B7B"/>
<path d="M24.552 11.5842C24.412 11.5842 24.302 11.5442 24.222 11.4642C24.142 11.3842 24.102 11.2776 24.102 11.1442C24.102 11.0042 24.142 10.8976 24.222 10.8242C24.302 10.7509 24.412 10.7142 24.552 10.7142H25.772V5.39423H26.292L24.832 6.32423C24.7253 6.38423 24.6253 6.40756 24.532 6.39423C24.4453 6.38089 24.3686 6.34423 24.302 6.28423C24.242 6.22423 24.1986 6.15089 24.172 6.06423C24.152 5.97756 24.1586 5.88756 24.192 5.79423C24.232 5.70089 24.302 5.62423 24.402 5.56423L25.782 4.69423C25.8953 4.62756 26.002 4.57423 26.102 4.53423C26.2086 4.48756 26.3086 4.46423 26.402 4.46423C26.5153 4.46423 26.6086 4.49756 26.682 4.56423C26.762 4.62423 26.802 4.72756 26.802 4.87423V10.7142H27.922C28.0686 10.7142 28.182 10.7509 28.262 10.8242C28.342 10.8976 28.382 11.0042 28.382 11.1442C28.382 11.2842 28.342 11.3942 28.262 11.4742C28.182 11.5476 28.0686 11.5842 27.922 11.5842H24.552Z" fill="black"/>
</svg>
